<svg width="120" height="110" viewBox="0 0 120 110" fill="none" xmlns="http://www.w3.org/2000/svg">
<path d="M117.707 55.7071C118.098 55.3166 118.098 54.6834 117.707 54.2929L111.343 47.9289C110.953 47.5384 110.319 47.5384 109.929 47.9289C109.538 48.3195 109.538 48.9526 109.929 49.3431L115.586 55L109.929 60.6569C109.538 61.0474 109.538 61.6805 109.929 62.0711C110.319 62.4616 110.953 62.4616 111.343 62.0711L117.707 55.7071ZM0 56H4.17857V54H0V56ZM12.5357 56H20.8929V54H12.5357V56ZM29.25 56H37.6071V54H29.25V56ZM45.9643 56H54.3214V54H45.9643V56ZM62.6786 56H71.0357V54H62.6786V56ZM79.3929 56H87.75V54H79.3929V56ZM96.1071 56H104.464V54H96.1071V56ZM112.821 56H117V54H112.821V56ZM118.414 56.4142C119.195 55.6332 119.195 54.3668 118.414 53.5858L105.686 40.8579C104.905 40.0768 103.639 40.0768 102.858 40.8579C102.077 41.6389 102.077 42.9052 102.858 43.6863L114.172 55L102.858 66.3137C102.077 67.0948 102.077 68.3611 102.858 69.1421C103.639 69.9232 104.905 69.9232 105.686 69.1421L118.414 56.4142ZM0 57H4.17857V53H0V57ZM12.5357 57H20.8929V53H12.5357V57ZM29.25 57H37.6071V53H29.25V57ZM45.9643 57H54.3214V53H45.9643V57ZM62.6786 57H71.0357V53H62.6786V57ZM79.3929 57H87.75V53H79.3929V57ZM96.1071 57H104.464V53H96.1071V57ZM112.821 57H117V53H112.821V57Z" fill="white"/>
</svg>
