<svg width="172" height="118" viewBox="0 0 172 118" fill="none" xmlns="http://www.w3.org/2000/svg">
<path d="M156.656 87.5607C157.242 86.9749 157.242 86.0251 156.656 85.4393L147.11 75.8934C146.525 75.3076 145.575 75.3076 144.989 75.8934C144.403 76.4792 144.403 77.4289 144.989 78.0147L153.474 86.5L144.989 94.9853C144.403 95.5711 144.403 96.5208 144.989 97.1066C145.575 97.6924 146.525 97.6924 147.11 97.1066L156.656 87.5607ZM21.8017 16.7586C34.5838 38.5634 47.4861 56.4529 67.558 68.839C87.6323 81.2267 114.692 88 155.596 88L155.596 85C114.999 85 88.5591 78.2733 69.1334 66.286C49.7053 54.2971 37.1076 36.9366 24.3898 15.2414L21.8017 16.7586Z" fill="white"/>
</svg>
