<svg width="22" height="22" viewBox="0 0 22 22" fill="none" xmlns="http://www.w3.org/2000/svg">
<circle cx="11" cy="11" r="11" fill="#FDFDFD"/>
<path fill-rule="evenodd" clip-rule="evenodd" d="M10.5475 5.9202C10.6815 5.97574 10.796 6.06976 10.8765 6.19038C10.9571 6.31099 11 6.45277 11 6.5978V15.3978C11 15.5428 10.957 15.6845 10.8764 15.8051C10.7958 15.9257 10.6813 16.0196 10.5473 16.0751C10.4133 16.1306 10.2659 16.1452 10.1237 16.1169C9.98142 16.0886 9.85077 16.0188 9.74821 15.9162L7.02975 13.1978H5.13336C4.93886 13.1978 4.75234 13.1205 4.61481 12.983C4.47729 12.8455 4.40002 12.6589 4.40002 12.4645V9.53112C4.40002 9.33663 4.47729 9.15011 4.61481 9.01258C4.75234 8.87505 4.93886 8.79779 5.13336 8.79779H7.02975L9.74821 6.07933C9.85077 5.97671 9.98145 5.90682 10.1237 5.87849C10.266 5.85017 10.4135 5.86468 10.5475 5.9202V5.9202ZM14.4151 5.8124C14.5527 5.67492 14.7391 5.59769 14.9336 5.59769C15.1281 5.59769 15.3145 5.67492 15.4521 5.8124C16.1339 6.49267 16.6747 7.30095 17.0433 8.19082C17.4119 9.08068 17.6011 10.0346 17.6 10.9978C17.6011 11.961 17.4119 12.9149 17.0433 13.8048C16.6747 14.6946 16.1339 15.5029 15.4521 16.1832C15.3138 16.3168 15.1285 16.3907 14.9362 16.389C14.744 16.3873 14.56 16.3102 14.4241 16.1742C14.2881 16.0383 14.211 15.8543 14.2093 15.6621C14.2076 15.4698 14.2816 15.2846 14.4151 15.1462C14.9608 14.6022 15.3936 13.9555 15.6885 13.2436C15.9833 12.5316 16.1345 11.7684 16.1333 10.9978C16.1346 10.2272 15.9834 9.46393 15.6885 8.75197C15.3936 8.04001 14.9609 7.3934 14.4151 6.84933C14.2777 6.71181 14.2004 6.52532 14.2004 6.33086C14.2004 6.13641 14.2777 5.94992 14.4151 5.8124V5.8124ZM12.3405 7.88626C12.4086 7.81808 12.4895 7.76399 12.5786 7.72708C12.6676 7.69018 12.763 7.67118 12.8594 7.67118C12.9557 7.67118 13.0512 7.69018 13.1402 7.72708C13.2292 7.76399 13.3101 7.81808 13.3782 7.88626C13.7873 8.29448 14.1118 8.77951 14.3329 9.31348C14.554 9.84745 14.6674 10.4198 14.6667 10.9978C14.6674 11.5757 14.5539 12.1481 14.3328 12.6821C14.1117 13.216 13.7873 13.7011 13.3782 14.1093C13.2406 14.2469 13.054 14.3242 12.8594 14.3242C12.6648 14.3242 12.4781 14.2469 12.3405 14.1093C12.2029 13.9717 12.1256 13.7851 12.1256 13.5905C12.1256 13.3959 12.2029 13.2093 12.3405 13.0716C12.6135 12.7997 12.8299 12.4765 12.9774 12.1206C13.1249 11.7646 13.2006 11.3831 13.2 10.9978C13.2006 10.6125 13.125 10.2309 12.9775 9.87499C12.83 9.51906 12.6135 9.19584 12.3405 8.92392C12.2724 8.85582 12.2183 8.77494 12.1814 8.68591C12.1445 8.59689 12.1255 8.50146 12.1255 8.40509C12.1255 8.30872 12.1445 8.21329 12.1814 8.12427C12.2183 8.03524 12.2724 7.95437 12.3405 7.88626V7.88626Z" fill="#5123DD"/>
</svg>
