<svg width="20" height="20" viewBox="0 0 20 20" fill="none" xmlns="http://www.w3.org/2000/svg">
<g clip-path="url(#clip0_349_131)">
<path d="M10 20C15.5228 20 20 15.5228 20 10C20 4.47715 15.5228 0 10 0C4.47715 0 0 4.47715 0 10C0 15.5228 4.47715 20 10 20Z" fill="#FDFDFD"/>
<path fill-rule="evenodd" clip-rule="evenodd" d="M9.58862 5.38206C9.71044 5.43255 9.81453 5.51802 9.88771 5.62768C9.96098 5.73732 9.99998 5.86621 9.99998 5.99806V13.9981C9.99998 14.1299 9.96089 14.2587 9.88762 14.3683C9.81435 14.478 9.71025 14.5633 9.58844 14.6138C9.46662 14.6642 9.33262 14.6775 9.20335 14.6518C9.074 14.6261 8.95523 14.5626 8.86199 14.4693L6.39066 11.9981H4.66667C4.48985 11.9981 4.32029 11.9278 4.19526 11.8028C4.07025 11.6778 4 11.5081 4 11.3314V8.66471C4 8.4879 4.07025 8.31834 4.19526 8.19331C4.32029 8.06829 4.48985 7.99805 4.66667 7.99805H6.39066L8.86199 5.52672C8.95523 5.43343 9.07403 5.36989 9.20335 5.34414C9.33271 5.31839 9.4668 5.33159 9.58862 5.38206ZM13.1046 5.28406C13.2297 5.15908 13.3992 5.08887 13.576 5.08887C13.7528 5.08887 13.9223 5.15908 14.0473 5.28406C14.6672 5.90249 15.1588 6.63729 15.4939 7.44626C15.829 8.25522 16.001 9.12242 16 9.99806C16.001 10.8737 15.829 11.7409 15.4939 12.5499C15.1588 13.3588 14.6672 14.0936 14.0473 14.7121C13.9216 14.8335 13.7532 14.9007 13.5783 14.8991C13.4036 14.8976 13.2363 14.8275 13.1128 14.7039C12.9892 14.5803 12.9191 14.4131 12.9175 14.2383C12.916 14.0635 12.9833 13.8951 13.1046 13.7693C13.6007 13.2748 13.9942 12.6869 14.2623 12.0397C14.5303 11.3924 14.6677 10.6986 14.6666 9.99806C14.6678 9.29751 14.5303 8.60363 14.2623 7.95639C13.9942 7.30916 13.6008 6.72133 13.1046 6.22672C12.9797 6.1017 12.9094 5.93217 12.9094 5.75539C12.9094 5.57861 12.9797 5.40908 13.1046 5.28406ZM11.2186 7.16939C11.2805 7.1074 11.3541 7.05823 11.4351 7.02468C11.516 6.99113 11.6027 6.97386 11.6903 6.97386C11.7779 6.97386 11.8647 6.99113 11.9456 7.02468C12.0265 7.05823 12.1001 7.1074 12.162 7.16939C12.5339 7.54049 12.8289 7.98143 13.0299 8.46686C13.2309 8.95229 13.334 9.4726 13.3333 9.99806C13.334 10.5234 13.2308 11.0438 13.0298 11.5292C12.8288 12.0146 12.5339 12.4556 12.162 12.8267C12.0369 12.9518 11.8673 13.0221 11.6903 13.0221C11.5134 13.0221 11.3437 12.9518 11.2186 12.8267C11.0935 12.7016 11.0233 12.532 11.0233 12.3551C11.0233 12.1781 11.0935 12.0085 11.2186 11.8833C11.4668 11.6361 11.6635 11.3423 11.7976 11.0188C11.9317 10.6951 12.0005 10.3483 12 9.99806C12.0005 9.64779 11.9318 9.30088 11.7977 8.97732C11.6636 8.65375 11.4668 8.35991 11.2186 8.11271C11.1567 8.0508 11.1075 7.97728 11.074 7.89634C11.0404 7.81541 11.0232 7.72866 11.0232 7.64105C11.0232 7.55344 11.0404 7.46669 11.074 7.38576C11.1075 7.30482 11.1567 7.2313 11.2186 7.16939Z" fill="#5123DD"/>
</g>
<defs>
<clipPath id="clip0_349_131">
<rect width="20" height="20" fill="white"/>
</clipPath>
</defs>
</svg>
